<svg data-v-6805eed4="" version="1.0" xmlns="http://www.w3.org/2000/svg" xmlns:xlink="http://www.w3.org/1999/xlink" width="500" height="500" viewBox="95 50 150 150" preserveAspectRatio="xMidYMid meet" color-interpolation-filters="sRGB" style="margin: auto;"> <!----> <g data-v-6805eed4="" class="iconmbgsvg" transform="translate(95,50.010498046875)"><g fill="#fbc2eb" hollow-target="textFill" mask="url(#223c2cae-7457-4a01-85d1-cffd3cc51d34)"><g mask="url(#a790ab67-19cb-445e-88b0-8fdb816bb47d)"><g><rect fill="#fbc2eb" fill-opacity="0" stroke-width="2" x="0" y="0" width="150" height="149.97900293958847" class="image-rect"></rect> <svg x="0" y="0" width="150" height="149.97900293958847" filtersec="colorsb4431825648" class="image-svg-svg primary" style="overflow: visible;"><svg fill="#000000" xmlns:x="http://ns.adobe.com/Extensibility/1.0/" xmlns:i="http://ns.adobe.com/AdobeIllustrator/10.0/" xmlns:graph="http://ns.adobe.com/Graphs/1.0/" xmlns="http://www.w3.org/2000/svg" xmlns:xlink="http://www.w3.org/1999/xlink" version="1.1" x="0px" y="0px" viewBox="0 0 90.01290893554688 90" enable-background="new 0 0 90 90" xml:space="preserve"><g><g i:extraneous="self"><g><circle cx="45" cy="45" r="35.5"></circle><path d="M89.1,42.9c-1.5-1.4-2.1-3-0.9-4.8c0.8-1.3,0.5-3-0.8-3.9c-1.8-1.2-1.9-2.7-1.1-4.4c0.7-1.5-0.1-3.3-1.6-3.9     c-1.7-0.6-2.7-1.7-2.4-3.7c0.3-1.5-0.7-3-2.3-3.3c-1.9-0.4-2.6-1.7-2.5-3.5c0-1.7-1.3-3-3-3c-1.8,0-3.1-0.6-3.5-2.5     c-0.3-1.5-1.8-2.5-3.3-2.3c-2,0.4-3-0.6-3.7-2.4c-0.6-1.6-2.3-2.3-3.9-1.6c-1.8,0.8-3.3,0.6-4.4-1.1c-0.8-1.3-2.6-1.7-3.9-0.8     C50,3,48.5,2.4,47.1,0.9c-1.1-1.2-3-1.2-4.1,0C41.5,2.4,40,3,38.1,1.8c-1.3-0.8-3-0.5-3.9,0.8c-1.2,1.8-2.7,1.9-4.4,1.1     C28.3,3,26.5,3.8,26,5.3c-0.6,1.7-1.7,2.7-3.7,2.4c-1.5-0.3-3,0.7-3.3,2.3c-0.4,1.9-1.7,2.5-3.5,2.5c-1.7,0-3,1.3-3,3     c0,1.8-0.6,3.1-2.5,3.5c-1.5,0.3-2.5,1.8-2.3,3.3c0.4,2-0.6,3-2.4,3.7c-1.6,0.6-2.3,2.3-1.6,3.9c0.8,1.8,0.6,3.3-1.1,4.4     c-1.3,0.8-1.7,2.6-0.8,3.9C3,40,2.4,41.5,0.9,42.9c-1.2,1.1-1.2,3,0,4.1c1.5,1.4,2.1,3,0.9,4.8c-0.8,1.3-0.5,3,0.8,3.9     c1.8,1.2,1.9,2.7,1.1,4.4C3,61.7,3.8,63.5,5.3,64c1.7,0.7,2.7,1.7,2.4,3.7c-0.3,1.5,0.7,3,2.3,3.3c1.9,0.4,2.5,1.7,2.5,3.5     c0,1.7,1.3,3,3,3c1.8,0,3.1,0.6,3.5,2.5c0.3,1.5,1.8,2.5,3.3,2.3c2-0.4,3,0.6,3.7,2.4c0.6,1.6,2.3,2.3,3.9,1.6     c1.8-0.8,3.3-0.6,4.4,1.1c0.8,1.3,2.6,1.7,3.9,0.8c1.9-1.2,3.4-0.6,4.8,0.9c1.1,1.2,3,1.2,4.1,0c1.4-1.5,3-2.1,4.8-0.9     c1.3,0.8,3,0.5,3.9-0.8c1.2-1.8,2.7-1.9,4.4-1.1c1.5,0.7,3.3-0.1,3.9-1.6c0.7-1.7,1.7-2.7,3.7-2.4c1.5,0.3,3-0.7,3.3-2.3     c0.4-1.9,1.7-2.6,3.5-2.5c1.7,0,3-1.3,3-3c0-1.8,0.6-3.1,2.5-3.5c1.5-0.3,2.5-1.8,2.3-3.3c-0.4-2,0.6-3,2.4-3.7     c1.6-0.6,2.3-2.3,1.6-3.9c-0.8-1.7-0.6-3.3,1.1-4.4c1.3-0.8,1.7-2.6,0.8-3.9c-1.2-1.9-0.6-3.4,0.9-4.8C90.3,46,90.3,44,89.1,42.9     z M45,82.5C24.3,82.5,7.5,65.7,7.5,45C7.5,24.3,24.3,7.5,45,7.5c20.7,0,37.5,16.8,37.5,37.5C82.5,65.7,65.7,82.5,45,82.5z"></path><circle cx="45" cy="45" r="35.5"></circle><circle cx="45" cy="45" r="35.5"></circle></g></g></g></svg></svg> <!----></g><rect v-gra="id" width="162" height="161.97900390625" transform="translate(-6, -6)" style="pointer-events:none;" fill="url(#r5EFe1Oz1fFC1_FS2cBbg)"></rect></g> <g transform="translate(1.2527008056640625,30.65882110595703)"><g data-gra="path-name" fill-rule="" class="tp-name" fill="url(#ae65e726-b5c9-4bf1-baad-7bdf6205ee04)"><g transform="scale(1)"><g><path d="M63.68 9.06C61.2 9.64 58.69 10.05 56.14 10.25 53.55 10.47 50.96 10.51 48.33 10.4 46.85 10.32 45.28 10.21 43.65 10.02 42.01 9.86 40.33 9.64 38.7 9.33 37.02 9.06 35.38 8.72 33.78 8.3 32.18 7.88 30.7 7.39 29.29 6.82 28.56 6.55 27.99 6.32 27.57 6.13 27.16 5.94 26.89 5.75 26.77 5.56 26.66 5.37 26.66 5.14 26.77 4.88 26.89 4.61 27.12 4.27 27.42 3.85 27.61 3.58 27.76 3.31 27.96 3.01 28.15 2.7 28.34 2.36 28.53 2.02 28.95 1.29 29.52 0.08 30.32-1.6 31.12-3.24 31.99-5.22 32.98-7.5 33.93-9.79 34.96-12.3 36.07-15.08 37.13-17.86 38.16-20.72 39.15-23.73 40.1-26.74 41.02-29.75 41.82-32.83 42.62-35.88 43.23-38.85 43.65-41.7 44.07-44.56 44.29-47.26 44.26-49.78 44.22-52.29 43.88-54.5 43.19-56.37 42.47-58.23 41.4-59.76 39.99-60.9 38.54-62 36.64-62.61 34.28-62.69 32.33-62.69 30.66-62.27 29.25-61.43 27.84-60.56 26.62-59.45 25.63-58.04 24.6-56.63 23.8-55.07 23.16-53.28 22.51-51.49 22.05-49.7 21.71-47.84 21.37-45.97 21.14-44.1 21.02-42.31 20.91-40.52 20.87-38.89 20.91-37.48 21.02-34.39 21.44-31.08 22.17-27.46 22.89-23.84 24.11-19.96 25.75-15.73 25.97-15.16 26.36-14.7 26.93-14.43 27.5-14.17 28.07-14.13 28.64-14.32 29.21-14.51 29.63-14.89 29.86-15.42 30.09-15.96 30.09-16.53 29.86-17.14 28.34-21.1 27.23-24.76 26.55-28.15 25.82-31.5 25.44-34.58 25.33-37.44 25.29-38.31 25.33-39.46 25.4-40.83 25.44-42.2 25.59-43.65 25.82-45.21 26.01-46.73 26.32-48.25 26.74-49.82 27.16-51.38 27.69-52.75 28.34-54.01 28.98-55.26 29.78-56.25 30.74-57.05 31.69-57.81 32.79-58.2 34.09-58.2 35.76-58.16 37.06-57.62 37.97-56.63 38.89-55.61 39.5-54.23 39.84-52.52 40.14-50.81 40.18-48.79 39.99-46.46 39.8-44.14 39.42-41.7 38.85-39.08 38.28-36.45 37.55-33.71 36.71-30.93 35.84-28.11 34.92-25.33 33.97-22.58 33.02-19.84 32.03-17.21 31-14.7 29.97-12.15 29.02-9.86 28.15-7.85 27.27-5.79 26.47-4.04 25.78-2.59 25.06-1.1 24.57-0.08 24.22 0.5 23.73 1.52 23.16 2.29 22.51 2.78 21.86 3.28 21.18 3.31 20.41 2.93 20.19 2.82 19.92 2.67 19.61 2.55 19.31 2.44 18.97 2.29 18.62 2.13 16.76 1.41 14.89 0.8 13.1 0.3 11.31-0.19 9.6-0.38 8-0.34 6.93-0.3 5.94-0.08 4.99 0.34 4.04 0.76 3.2 1.29 2.48 1.98 1.75 2.67 1.18 3.47 0.76 4.38 0.34 5.33 0.11 6.32 0.08 7.43 0.08 8.76 0.42 9.9 1.07 10.93 1.71 11.96 2.51 12.83 3.54 13.56 4.53 14.28 5.64 14.82 6.86 15.2 8.07 15.62 9.25 15.81 10.44 15.84 12.91 15.92 15.2 15.42 17.29 14.4 19.39 13.37 21.25 12 22.93 10.32 23.19 10.05 23.38 9.86 23.58 9.71 23.73 9.6 23.92 9.52 24.11 9.48 24.3 9.45 24.53 9.48 24.79 9.6 25.06 9.71 25.44 9.86 25.9 10.05 27.42 10.82 29.14 11.46 31.04 12.04 32.94 12.61 34.92 13.06 36.94 13.44 38.96 13.86 40.94 14.17 42.92 14.36 44.9 14.59 46.73 14.74 48.37 14.82 51.23 14.93 54.01 14.89 56.79 14.66 59.57 14.43 62.27 13.98 64.94 13.33 65.51 13.18 65.96 12.83 66.27 12.34 66.54 11.84 66.61 11.31 66.42 10.7 66.23 10.09 65.85 9.64 65.36 9.29 64.86 8.99 64.29 8.91 63.68 9.06ZM16.34 5.9C17.29 6.25 18.01 6.55 18.51 6.82 19 7.08 19.23 7.35 19.27 7.62 19.27 7.88 19.04 8.19 18.55 8.53 18.05 8.87 17.29 9.33 16.3 9.9 15.5 10.36 14.59 10.74 13.6 11.01 12.61 11.27 11.62 11.43 10.59 11.43 10.09 11.43 9.48 11.35 8.8 11.2 8.07 11.08 7.43 10.85 6.82 10.55 6.17 10.25 5.64 9.86 5.22 9.37 4.76 8.91 4.53 8.34 4.53 7.69 4.53 7.16 4.65 6.67 4.88 6.25 5.1 5.83 5.41 5.48 5.79 5.14 6.17 4.84 6.59 4.61 7.08 4.42 7.54 4.23 8 4.15 8.49 4.11 9.56 4.08 10.78 4.19 12.11 4.53 13.44 4.88 14.85 5.33 16.34 5.9ZM78.8 2.21C77.62 4 76.36 5.52 75.03 6.78 73.7 8.04 72.33 9.06 70.92 9.83 69.51 10.59 68.06 11.12 66.65 11.43 65.24 11.73 63.87 11.84 62.54 11.81 60.94 11.73 59.45 11.43 58.12 10.89 56.75 10.36 55.57 9.64 54.62 8.72 53.66 7.85 52.94 6.82 52.44 5.64 51.95 4.46 51.83 3.24 52.03 1.9 52.14 1.03 52.41 0.23 52.86-0.53 53.32-1.26 53.89-1.9 54.58-2.48 55.22-3.05 55.99-3.5 56.79-3.85 57.59-4.19 58.42-4.42 59.26-4.49 60.59-4.65 61.7-4.46 62.65-3.92 63.57-3.35 64.33-2.63 64.9-1.71 65.47-0.76 65.85 0.27 66.08 1.45 66.31 2.63 66.38 3.73 66.31 4.8 66.27 5.52 66.46 6.06 66.92 6.4 67.34 6.74 67.87 6.89 68.44 6.86 69.01 6.82 69.54 6.55 70.04 6.13 70.54 5.71 70.84 5.14 70.88 4.38 70.99 2.59 70.84 0.84 70.34-0.88 69.85-2.59 69.13-4.08 68.1-5.37 67.07-6.63 65.77-7.62 64.21-8.34 62.65-9.06 60.86-9.29 58.84-9.1 57.47-8.95 56.14-8.61 54.84-8.04 53.55-7.46 52.41-6.7 51.38-5.83 50.35-4.95 49.47-3.88 48.79-2.7 48.1-1.52 47.65-0.19 47.46 1.26 47.15 3.35 47.34 5.33 48.06 7.12 48.75 8.91 49.78 10.51 51.19 11.84 52.56 13.18 54.23 14.24 56.18 15.04 58.12 15.84 60.21 16.3 62.42 16.42 64.14 16.49 65.89 16.34 67.68 15.92 69.47 15.54 71.22 14.89 72.97 13.94 74.72 13.03 76.44 11.81 78.08 10.28 79.71 8.8 81.24 6.93 82.65 4.76 83.87 2.89 84.97 0.99 86-1.03 86.99-3.05 87.9-5.03 88.74-7.05 88.89-7.39 89.12-7.62 89.46-7.73 89.81-7.85 90.11-7.77 90.42-7.58 92.55-6.25 94.49-4.72 96.21-2.97 97.92-1.18 99.48 0.69 100.97 2.7 102.45 4.72 103.86 6.78 105.19 8.87 106.53 11.01 107.86 13.06 109.23 15.08 111.93 18.85 114.87 21.63 118.03 23.38 121.19 25.17 124.39 26.01 127.59 25.97 129.53 25.94 131.43 25.59 133.3 24.95 135.17 24.3 136.96 23.35 138.67 22.09 140.35 20.87 141.91 19.35 143.39 17.56 144.88 15.77 146.17 13.75 147.32 11.46 147.58 10.89 147.66 10.28 147.47 9.67 147.28 9.1 146.86 8.65 146.25 8.38 145.68 8.11 145.07 8.07 144.5 8.26 143.93 8.46 143.47 8.87 143.17 9.45 142.37 11.01 141.45 12.49 140.42 13.9 139.39 15.31 138.21 16.57 136.92 17.67 135.59 18.78 134.14 19.65 132.58 20.3 130.98 20.95 129.26 21.29 127.4 21.29 125.87 21.29 124.43 21.06 123.09 20.57 121.72 20.07 120.43 19.42 119.25 18.62 118.03 17.82 116.89 16.91 115.86 15.84 114.83 14.78 113.88 13.63 113 12.45 111.78 10.7 110.6 8.91 109.46 7.12 108.32 5.33 107.14 3.58 105.92 1.83 104.7 0.11 103.44-1.6 102.11-3.24 100.78-4.88 99.29-6.44 97.69-7.92 97.5-8.11 97.39-8.3 97.35-8.53 97.31-8.76 97.31-8.99 97.39-9.22 97.46-9.41 97.58-9.6 97.77-9.75 97.96-9.86 98.19-9.94 98.45-9.94 103.37-9.94 107.63-10.59 111.25-11.84 114.87-13.1 117.91-14.74 120.31-16.83 122.71-18.93 124.54-21.33 125.76-24.03 126.94-26.74 127.55-29.52 127.59-32.37 127.63-35.34 127.17-38.12 126.22-40.71 125.26-43.3 123.93-45.67 122.22-47.84 120.5-49.97 118.49-51.87 116.16-53.55 113.84-55.22 111.36-56.63 108.7-57.78 106.03-58.92 103.25-59.79 100.39-60.37 97.5-60.94 94.64-61.24 91.79-61.2 88.44-61.17 85.2-60.63 82.11-59.68 79.03-58.73 76.25-57.24 73.85-55.26 71.45-53.28 69.47-50.77 67.98-47.72 66.5-44.64 65.66-41.02 65.47-36.79 65.43-35.08 65.51-33.25 65.7-31.38 65.89-29.48 66.27-27.46 66.76-25.37 66.92-24.72 67.26-24.26 67.79-23.92 68.33-23.58 68.9-23.5 69.54-23.65 70.19-23.8 70.65-24.15 70.99-24.68 71.33-25.21 71.41-25.82 71.26-26.47 70.34-30.35 69.96-33.86 70.12-36.94 70.31-40.37 70.99-43.3 72.25-45.78 73.51-48.25 75.11-50.27 77.09-51.87 79.07-53.47 81.31-54.65 83.87-55.42 86.38-56.18 89.01-56.6 91.79-56.63 94.26-56.67 96.74-56.44 99.25-55.95 101.77-55.45 104.2-54.69 106.53-53.7 108.85-52.71 111.06-51.49 113.08-50.08 115.1-48.64 116.89-47 118.37-45.21 119.86-43.42 121-41.44 121.84-39.27 122.67-37.1 123.06-34.81 122.98-32.37 122.9-29.82 122.26-27.42 121-25.14 119.74-22.81 117.91-20.83 115.48-19.16 113-17.48 109.95-16.22 106.3-15.39 102.6-14.55 98.34-14.32 93.42-14.74 93.23-14.78 93.04-14.89 92.85-15.08 92.66-15.27 92.59-15.58 92.63-16 92.66-16.22 92.78-16.68 93.01-17.37 93.23-18.05 93.54-18.89 93.92-19.88 94.26-20.87 94.68-21.98 95.18-23.19 95.63-24.38 96.13-25.63 96.62-26.89 97.12-28.15 97.61-29.36 98.11-30.58 98.6-31.76 99.06-32.87 99.48-33.9 99.9-34.92 100.24-35.76 100.58-36.49 100.89-37.21 101.12-37.67 101.23-37.93 101.5-38.5 101.58-39.11 101.38-39.69 101.19-40.26 100.78-40.71 100.2-41.02 99.63-41.29 99.02-41.36 98.45-41.17 97.88-40.98 97.42-40.56 97.12-39.99 95.79-37.36 94.57-34.62 93.39-31.69 92.21-28.75 91.03-25.71 89.88-22.55 89.08-20.45 88.32-18.32 87.52-16.19 86.72-14.05 85.88-11.96 85.01-9.86 84.13-7.77 83.18-5.67 82.15-3.66 81.12-1.64 80.02 0.34 78.8 2.21Z" transform="translate(-0.08000000566244125, 62.689998626708984)"></path></g> <!----> <!----> <!----> <!----> <!----> <!----> <!----></g></g> <!----></g></g></g><mask id="223c2cae-7457-4a01-85d1-cffd3cc51d34"><g fill="white"><g><rect fill-opacity="0" stroke-width="2" x="0" y="0" width="150" height="149.97900293958847" class="image-rect"></rect> <svg x="0" y="0" width="150" height="149.97900293958847" filtersec="colorsb4431825648" class="image-svg-svg primary" style="overflow: visible;"><svg xmlns:x="http://ns.adobe.com/Extensibility/1.0/" xmlns:i="http://ns.adobe.com/AdobeIllustrator/10.0/" xmlns:graph="http://ns.adobe.com/Graphs/1.0/" xmlns="http://www.w3.org/2000/svg" xmlns:xlink="http://www.w3.org/1999/xlink" version="1.1" x="0px" y="0px" viewBox="0 0 90.01290893554688 90" enable-background="new 0 0 90 90" xml:space="preserve"><g><g i:extraneous="self"><g><circle cx="45" cy="45" r="35.5"></circle><path d="M89.1,42.9c-1.5-1.4-2.1-3-0.9-4.8c0.8-1.3,0.5-3-0.8-3.9c-1.8-1.2-1.9-2.7-1.1-4.4c0.7-1.5-0.1-3.3-1.6-3.9     c-1.7-0.6-2.7-1.7-2.4-3.7c0.3-1.5-0.7-3-2.3-3.3c-1.9-0.4-2.6-1.7-2.5-3.5c0-1.7-1.3-3-3-3c-1.8,0-3.1-0.6-3.5-2.5     c-0.3-1.5-1.8-2.5-3.3-2.3c-2,0.4-3-0.6-3.7-2.4c-0.6-1.6-2.3-2.3-3.9-1.6c-1.8,0.8-3.3,0.6-4.4-1.1c-0.8-1.3-2.6-1.7-3.9-0.8     C50,3,48.5,2.4,47.1,0.9c-1.1-1.2-3-1.2-4.1,0C41.5,2.4,40,3,38.1,1.8c-1.3-0.8-3-0.5-3.9,0.8c-1.2,1.8-2.7,1.9-4.4,1.1     C28.3,3,26.5,3.8,26,5.3c-0.6,1.7-1.7,2.7-3.7,2.4c-1.5-0.3-3,0.7-3.3,2.3c-0.4,1.9-1.7,2.5-3.5,2.5c-1.7,0-3,1.3-3,3     c0,1.8-0.6,3.1-2.5,3.5c-1.5,0.3-2.5,1.8-2.3,3.3c0.4,2-0.6,3-2.4,3.7c-1.6,0.6-2.3,2.3-1.6,3.9c0.8,1.8,0.6,3.3-1.1,4.4     c-1.3,0.8-1.7,2.6-0.8,3.9C3,40,2.4,41.5,0.9,42.9c-1.2,1.1-1.2,3,0,4.1c1.5,1.4,2.1,3,0.9,4.8c-0.8,1.3-0.5,3,0.8,3.9     c1.8,1.2,1.9,2.7,1.1,4.4C3,61.7,3.8,63.5,5.3,64c1.7,0.7,2.7,1.7,2.4,3.7c-0.3,1.5,0.7,3,2.3,3.3c1.9,0.4,2.5,1.7,2.5,3.5     c0,1.7,1.3,3,3,3c1.8,0,3.1,0.6,3.5,2.5c0.3,1.5,1.8,2.5,3.3,2.3c2-0.4,3,0.6,3.7,2.4c0.6,1.6,2.3,2.3,3.9,1.6     c1.8-0.8,3.3-0.6,4.4,1.1c0.8,1.3,2.6,1.7,3.9,0.8c1.9-1.2,3.4-0.6,4.8,0.9c1.1,1.2,3,1.2,4.1,0c1.4-1.5,3-2.1,4.8-0.9     c1.3,0.8,3,0.5,3.9-0.8c1.2-1.8,2.7-1.9,4.4-1.1c1.5,0.7,3.3-0.1,3.9-1.6c0.7-1.7,1.7-2.7,3.7-2.4c1.5,0.3,3-0.7,3.3-2.3     c0.4-1.9,1.7-2.6,3.5-2.5c1.7,0,3-1.3,3-3c0-1.8,0.6-3.1,2.5-3.5c1.5-0.3,2.5-1.8,2.3-3.3c-0.4-2,0.6-3,2.4-3.7     c1.6-0.6,2.3-2.3,1.6-3.9c-0.8-1.7-0.6-3.3,1.1-4.4c1.3-0.8,1.7-2.6,0.8-3.9c-1.2-1.9-0.6-3.4,0.9-4.8C90.3,46,90.3,44,89.1,42.9     z M45,82.5C24.3,82.5,7.5,65.7,7.5,45C7.5,24.3,24.3,7.5,45,7.5c20.7,0,37.5,16.8,37.5,37.5C82.5,65.7,65.7,82.5,45,82.5z"></path><circle cx="45" cy="45" r="35.5"></circle><circle cx="45" cy="45" r="35.5"></circle></g></g></g></svg></svg> </g></g> <g transform="translate(1.2527008056640625,30.65882110595703)" fill="black"><g data-gra="path-name" fill-rule="" class="tp-name"><g transform="scale(1)"><g><path d="M63.68 9.06C61.2 9.64 58.69 10.05 56.14 10.25 53.55 10.47 50.96 10.51 48.33 10.4 46.85 10.32 45.28 10.21 43.65 10.02 42.01 9.86 40.33 9.64 38.7 9.33 37.02 9.06 35.38 8.72 33.78 8.3 32.18 7.88 30.7 7.39 29.29 6.82 28.56 6.55 27.99 6.32 27.57 6.13 27.16 5.94 26.89 5.75 26.77 5.56 26.66 5.37 26.66 5.14 26.77 4.88 26.89 4.61 27.12 4.27 27.42 3.85 27.61 3.58 27.76 3.31 27.96 3.01 28.15 2.7 28.34 2.36 28.53 2.02 28.95 1.29 29.52 0.08 30.32-1.6 31.12-3.24 31.99-5.22 32.98-7.5 33.93-9.79 34.96-12.3 36.07-15.08 37.13-17.86 38.16-20.72 39.15-23.73 40.1-26.74 41.02-29.75 41.82-32.83 42.62-35.88 43.23-38.85 43.65-41.7 44.07-44.56 44.29-47.26 44.26-49.78 44.22-52.29 43.88-54.5 43.19-56.37 42.47-58.23 41.4-59.76 39.99-60.9 38.54-62 36.64-62.61 34.28-62.69 32.33-62.69 30.66-62.27 29.25-61.43 27.84-60.56 26.62-59.45 25.63-58.04 24.6-56.63 23.8-55.07 23.16-53.28 22.51-51.49 22.05-49.7 21.71-47.84 21.37-45.97 21.14-44.1 21.02-42.31 20.91-40.52 20.87-38.89 20.91-37.48 21.02-34.39 21.44-31.08 22.17-27.46 22.89-23.84 24.11-19.96 25.75-15.73 25.97-15.16 26.36-14.7 26.93-14.43 27.5-14.17 28.07-14.13 28.64-14.32 29.21-14.51 29.63-14.89 29.86-15.42 30.09-15.96 30.09-16.53 29.86-17.14 28.34-21.1 27.23-24.76 26.55-28.15 25.82-31.5 25.44-34.58 25.33-37.44 25.29-38.31 25.33-39.46 25.4-40.83 25.44-42.2 25.59-43.65 25.82-45.21 26.01-46.73 26.32-48.25 26.74-49.82 27.16-51.38 27.69-52.75 28.34-54.01 28.98-55.26 29.78-56.25 30.74-57.05 31.69-57.81 32.79-58.2 34.09-58.2 35.76-58.16 37.06-57.62 37.97-56.63 38.89-55.61 39.5-54.23 39.84-52.52 40.14-50.81 40.18-48.79 39.99-46.46 39.8-44.14 39.42-41.7 38.85-39.08 38.28-36.45 37.55-33.71 36.71-30.93 35.84-28.11 34.92-25.33 33.97-22.58 33.02-19.84 32.03-17.21 31-14.7 29.97-12.15 29.02-9.86 28.15-7.85 27.27-5.79 26.47-4.04 25.78-2.59 25.06-1.1 24.57-0.08 24.22 0.5 23.73 1.52 23.16 2.29 22.51 2.78 21.86 3.28 21.18 3.31 20.41 2.93 20.19 2.82 19.92 2.67 19.61 2.55 19.31 2.44 18.97 2.29 18.62 2.13 16.76 1.41 14.89 0.8 13.1 0.3 11.31-0.19 9.6-0.38 8-0.34 6.93-0.3 5.94-0.08 4.99 0.34 4.04 0.76 3.2 1.29 2.48 1.98 1.75 2.67 1.18 3.47 0.76 4.38 0.34 5.33 0.11 6.32 0.08 7.43 0.08 8.76 0.42 9.9 1.07 10.93 1.71 11.96 2.51 12.83 3.54 13.56 4.53 14.28 5.64 14.82 6.86 15.2 8.07 15.62 9.25 15.81 10.44 15.84 12.91 15.92 15.2 15.42 17.29 14.4 19.39 13.37 21.25 12 22.93 10.32 23.19 10.05 23.38 9.86 23.58 9.71 23.73 9.6 23.92 9.52 24.11 9.48 24.3 9.45 24.53 9.48 24.79 9.6 25.06 9.71 25.44 9.86 25.9 10.05 27.42 10.82 29.14 11.46 31.04 12.04 32.94 12.61 34.92 13.06 36.94 13.44 38.96 13.86 40.94 14.17 42.92 14.36 44.9 14.59 46.73 14.74 48.37 14.82 51.23 14.93 54.01 14.89 56.79 14.66 59.57 14.43 62.27 13.98 64.94 13.33 65.51 13.18 65.96 12.83 66.27 12.34 66.54 11.84 66.61 11.31 66.42 10.7 66.23 10.09 65.85 9.64 65.36 9.29 64.86 8.99 64.29 8.91 63.68 9.06ZM16.34 5.9C17.29 6.25 18.01 6.55 18.51 6.82 19 7.08 19.23 7.35 19.27 7.62 19.27 7.88 19.04 8.19 18.55 8.53 18.05 8.87 17.29 9.33 16.3 9.9 15.5 10.36 14.59 10.74 13.6 11.01 12.61 11.27 11.62 11.43 10.59 11.43 10.09 11.43 9.48 11.35 8.8 11.2 8.07 11.08 7.43 10.85 6.82 10.55 6.17 10.25 5.64 9.86 5.22 9.37 4.76 8.91 4.53 8.34 4.53 7.69 4.53 7.16 4.65 6.67 4.88 6.25 5.1 5.83 5.41 5.48 5.79 5.14 6.17 4.84 6.59 4.61 7.08 4.42 7.54 4.23 8 4.15 8.49 4.11 9.56 4.08 10.78 4.19 12.11 4.53 13.44 4.88 14.85 5.33 16.34 5.9ZM78.8 2.21C77.62 4 76.36 5.52 75.03 6.78 73.7 8.04 72.33 9.06 70.92 9.83 69.51 10.59 68.06 11.12 66.65 11.43 65.24 11.73 63.87 11.84 62.54 11.81 60.94 11.73 59.45 11.43 58.12 10.89 56.75 10.36 55.57 9.64 54.62 8.72 53.66 7.85 52.94 6.82 52.44 5.64 51.95 4.46 51.83 3.24 52.03 1.9 52.14 1.03 52.41 0.23 52.86-0.53 53.32-1.26 53.89-1.9 54.58-2.48 55.22-3.05 55.99-3.5 56.79-3.85 57.59-4.19 58.42-4.42 59.26-4.49 60.59-4.65 61.7-4.46 62.65-3.92 63.57-3.35 64.33-2.63 64.9-1.71 65.47-0.76 65.85 0.27 66.08 1.45 66.31 2.63 66.38 3.73 66.31 4.8 66.27 5.52 66.46 6.06 66.92 6.4 67.34 6.74 67.87 6.89 68.44 6.86 69.01 6.82 69.54 6.55 70.04 6.13 70.54 5.71 70.84 5.14 70.88 4.38 70.99 2.59 70.84 0.84 70.34-0.88 69.85-2.59 69.13-4.08 68.1-5.37 67.07-6.63 65.77-7.62 64.21-8.34 62.65-9.06 60.86-9.29 58.84-9.1 57.47-8.95 56.14-8.61 54.84-8.04 53.55-7.46 52.41-6.7 51.38-5.83 50.35-4.95 49.47-3.88 48.79-2.7 48.1-1.52 47.65-0.19 47.46 1.26 47.15 3.35 47.34 5.33 48.06 7.12 48.75 8.91 49.78 10.51 51.19 11.84 52.56 13.18 54.23 14.24 56.18 15.04 58.12 15.84 60.21 16.3 62.42 16.42 64.14 16.49 65.89 16.34 67.68 15.92 69.47 15.54 71.22 14.89 72.97 13.94 74.72 13.03 76.44 11.81 78.08 10.28 79.71 8.8 81.24 6.93 82.65 4.76 83.87 2.89 84.97 0.99 86-1.03 86.99-3.05 87.9-5.03 88.74-7.05 88.89-7.39 89.12-7.62 89.46-7.73 89.81-7.85 90.11-7.77 90.42-7.58 92.55-6.25 94.49-4.72 96.21-2.97 97.92-1.18 99.48 0.69 100.97 2.7 102.45 4.72 103.86 6.78 105.19 8.87 106.53 11.01 107.86 13.06 109.23 15.08 111.93 18.85 114.87 21.63 118.03 23.38 121.19 25.17 124.39 26.01 127.59 25.97 129.53 25.94 131.43 25.59 133.3 24.95 135.17 24.3 136.96 23.35 138.67 22.09 140.35 20.87 141.91 19.35 143.39 17.56 144.88 15.77 146.17 13.75 147.32 11.46 147.58 10.89 147.66 10.28 147.47 9.67 147.28 9.1 146.86 8.65 146.25 8.38 145.68 8.11 145.07 8.07 144.5 8.26 143.93 8.46 143.47 8.87 143.17 9.45 142.37 11.01 141.45 12.49 140.42 13.9 139.39 15.31 138.21 16.57 136.92 17.67 135.59 18.78 134.14 19.65 132.58 20.3 130.98 20.95 129.26 21.29 127.4 21.29 125.87 21.29 124.43 21.06 123.09 20.57 121.72 20.07 120.43 19.42 119.25 18.62 118.03 17.82 116.89 16.91 115.86 15.84 114.83 14.78 113.88 13.63 113 12.45 111.78 10.7 110.6 8.91 109.46 7.12 108.32 5.33 107.14 3.58 105.92 1.83 104.7 0.11 103.44-1.6 102.11-3.24 100.78-4.88 99.29-6.44 97.69-7.92 97.5-8.11 97.39-8.3 97.35-8.53 97.31-8.76 97.31-8.99 97.39-9.22 97.46-9.41 97.58-9.6 97.77-9.75 97.96-9.86 98.19-9.94 98.45-9.94 103.37-9.94 107.63-10.59 111.25-11.84 114.87-13.1 117.91-14.74 120.31-16.83 122.71-18.93 124.54-21.33 125.76-24.03 126.94-26.74 127.55-29.52 127.59-32.37 127.63-35.34 127.17-38.12 126.22-40.71 125.26-43.3 123.93-45.67 122.22-47.84 120.5-49.97 118.49-51.87 116.16-53.55 113.84-55.22 111.36-56.63 108.7-57.78 106.03-58.92 103.25-59.79 100.39-60.37 97.5-60.94 94.64-61.24 91.79-61.2 88.44-61.17 85.2-60.63 82.11-59.68 79.03-58.73 76.25-57.24 73.85-55.26 71.45-53.28 69.47-50.77 67.98-47.72 66.5-44.64 65.66-41.02 65.47-36.79 65.43-35.08 65.51-33.25 65.7-31.38 65.89-29.48 66.27-27.46 66.76-25.37 66.92-24.72 67.26-24.26 67.79-23.92 68.33-23.58 68.9-23.5 69.54-23.65 70.19-23.8 70.65-24.15 70.99-24.68 71.33-25.21 71.41-25.82 71.26-26.47 70.34-30.35 69.96-33.86 70.12-36.94 70.31-40.37 70.99-43.3 72.25-45.78 73.51-48.25 75.11-50.27 77.09-51.87 79.07-53.47 81.31-54.65 83.87-55.42 86.38-56.18 89.01-56.6 91.79-56.63 94.26-56.67 96.74-56.44 99.25-55.95 101.77-55.45 104.2-54.69 106.53-53.7 108.85-52.71 111.06-51.49 113.08-50.08 115.1-48.64 116.89-47 118.37-45.21 119.86-43.42 121-41.44 121.84-39.27 122.67-37.1 123.06-34.81 122.98-32.37 122.9-29.82 122.26-27.42 121-25.14 119.74-22.81 117.91-20.83 115.48-19.16 113-17.48 109.95-16.22 106.3-15.39 102.6-14.55 98.34-14.32 93.42-14.74 93.23-14.78 93.04-14.89 92.85-15.08 92.66-15.27 92.59-15.58 92.63-16 92.66-16.22 92.78-16.68 93.01-17.37 93.23-18.05 93.54-18.89 93.92-19.88 94.26-20.87 94.68-21.98 95.18-23.19 95.63-24.38 96.13-25.63 96.62-26.89 97.12-28.15 97.61-29.36 98.11-30.58 98.6-31.76 99.06-32.87 99.48-33.9 99.9-34.92 100.24-35.76 100.58-36.49 100.89-37.21 101.12-37.67 101.23-37.93 101.5-38.5 101.58-39.11 101.38-39.69 101.19-40.26 100.78-40.71 100.2-41.02 99.63-41.29 99.02-41.36 98.45-41.17 97.88-40.98 97.42-40.56 97.12-39.99 95.79-37.36 94.57-34.62 93.39-31.69 92.21-28.75 91.03-25.71 89.88-22.55 89.08-20.45 88.32-18.32 87.52-16.19 86.72-14.05 85.88-11.96 85.01-9.86 84.13-7.77 83.18-5.67 82.15-3.66 81.12-1.64 80.02 0.34 78.8 2.21Z" transform="translate(-0.08000000566244125, 62.689998626708984)"></path></g>       </g></g> </g></mask><defs v-gra="od"><linearGradient x1="0" y1="1" x2="0" y2="0" id="ae65e726-b5c9-4bf1-baad-7bdf6205ee04"><stop offset="0%" stop-color="#fbc2eb"></stop><stop offset="100%" stop-color="#a6c0ee"></stop></linearGradient><filter id="42443b3f1de60f6b6fd3b6a9844b4764" filterUnits="objectBoundingBox"><feColorMatrix type="matrix" values="0 0 0 0 0.99609375  0 0 0 0 0.99609375  0 0 0 0 0.99609375  0 0 0 1 0"></feColorMatrix></filter></defs><defs v-gra="id"><filter id="aade8f09-5ff5-4a18-85b7-40aa5b51bee2" filterUnits="userSpaceOnUse"><feColorMatrix type="matrix" values="0 0 0 0 0.99609375  0 0 0 0 0.99609375  0 0 0 0 0.99609375  0 0 0 1 0"></feColorMatrix></filter><linearGradient x1="0" y1="1" x2="0" y2="0" id="r5EFe1Oz1fFC1_FS2cBbg"><stop offset="0%" stop-color="#fbc2eb"></stop><stop offset="100%" stop-color="#a6c0ee"></stop></linearGradient><filter id="42443b3f1de60f6b6fd3b6a9844b4764" filterUnits="objectBoundingBox"><feColorMatrix type="matrix" values="0 0 0 0 0.99609375  0 0 0 0 0.99609375  0 0 0 0 0.99609375  0 0 0 1 0"></feColorMatrix></filter></defs><mask v-gra="im" id="a790ab67-19cb-445e-88b0-8fdb816bb47d"><g filter="url(#aade8f09-5ff5-4a18-85b7-40aa5b51bee2)"><g><rect fill="#fbc2eb" fill-opacity="0" stroke-width="2" x="0" y="0" width="150" height="149.97900293958847" class="image-rect"></rect> <svg x="0" y="0" width="150" height="149.97900293958847" filtersec="colorsb4431825648" class="image-svg-svg primary" style="overflow: visible;"><svg fill="#000000" xmlns:x="http://ns.adobe.com/Extensibility/1.0/" xmlns:i="http://ns.adobe.com/AdobeIllustrator/10.0/" xmlns:graph="http://ns.adobe.com/Graphs/1.0/" xmlns="http://www.w3.org/2000/svg" xmlns:xlink="http://www.w3.org/1999/xlink" version="1.1" x="0px" y="0px" viewBox="0 0 90.01290893554688 90" enable-background="new 0 0 90 90" xml:space="preserve"><g><g i:extraneous="self"><g><circle cx="45" cy="45" r="35.5"></circle><path d="M89.1,42.9c-1.5-1.4-2.1-3-0.9-4.8c0.8-1.3,0.5-3-0.8-3.9c-1.8-1.2-1.9-2.7-1.1-4.4c0.7-1.5-0.1-3.3-1.6-3.9     c-1.7-0.6-2.7-1.7-2.4-3.7c0.3-1.5-0.7-3-2.3-3.3c-1.9-0.4-2.6-1.7-2.5-3.5c0-1.7-1.3-3-3-3c-1.8,0-3.1-0.6-3.5-2.5     c-0.3-1.5-1.8-2.5-3.3-2.3c-2,0.4-3-0.6-3.7-2.4c-0.6-1.6-2.3-2.3-3.9-1.6c-1.8,0.8-3.3,0.6-4.4-1.1c-0.8-1.3-2.6-1.7-3.9-0.8     C50,3,48.5,2.4,47.1,0.9c-1.1-1.2-3-1.2-4.1,0C41.5,2.4,40,3,38.1,1.8c-1.3-0.8-3-0.5-3.9,0.8c-1.2,1.8-2.7,1.9-4.4,1.1     C28.3,3,26.5,3.8,26,5.3c-0.6,1.7-1.7,2.7-3.7,2.4c-1.5-0.3-3,0.7-3.3,2.3c-0.4,1.9-1.7,2.5-3.5,2.5c-1.7,0-3,1.3-3,3     c0,1.8-0.6,3.1-2.5,3.5c-1.5,0.3-2.5,1.8-2.3,3.3c0.4,2-0.6,3-2.4,3.7c-1.6,0.6-2.3,2.3-1.6,3.9c0.8,1.8,0.6,3.3-1.1,4.4     c-1.3,0.8-1.7,2.6-0.8,3.9C3,40,2.4,41.5,0.9,42.9c-1.2,1.1-1.2,3,0,4.1c1.5,1.4,2.1,3,0.9,4.8c-0.8,1.3-0.5,3,0.8,3.9     c1.8,1.2,1.9,2.7,1.1,4.4C3,61.7,3.8,63.5,5.3,64c1.7,0.7,2.7,1.7,2.4,3.7c-0.3,1.5,0.7,3,2.3,3.3c1.9,0.4,2.5,1.7,2.5,3.5     c0,1.7,1.3,3,3,3c1.8,0,3.1,0.6,3.5,2.5c0.3,1.5,1.8,2.5,3.3,2.3c2-0.4,3,0.6,3.7,2.4c0.6,1.6,2.3,2.3,3.9,1.6     c1.8-0.8,3.3-0.6,4.4,1.1c0.8,1.3,2.6,1.7,3.9,0.8c1.9-1.2,3.4-0.6,4.8,0.9c1.1,1.2,3,1.2,4.1,0c1.4-1.5,3-2.1,4.8-0.9     c1.3,0.8,3,0.5,3.9-0.8c1.2-1.8,2.7-1.9,4.4-1.1c1.5,0.7,3.3-0.1,3.9-1.6c0.7-1.7,1.7-2.7,3.7-2.4c1.5,0.3,3-0.7,3.3-2.3     c0.4-1.9,1.7-2.6,3.5-2.5c1.7,0,3-1.3,3-3c0-1.8,0.6-3.1,2.5-3.5c1.5-0.3,2.5-1.8,2.3-3.3c-0.4-2,0.6-3,2.4-3.7     c1.6-0.6,2.3-2.3,1.6-3.9c-0.8-1.7-0.6-3.3,1.1-4.4c1.3-0.8,1.7-2.6,0.8-3.9c-1.2-1.9-0.6-3.4,0.9-4.8C90.3,46,90.3,44,89.1,42.9     z M45,82.5C24.3,82.5,7.5,65.7,7.5,45C7.5,24.3,24.3,7.5,45,7.5c20.7,0,37.5,16.8,37.5,37.5C82.5,65.7,65.7,82.5,45,82.5z"></path><circle cx="45" cy="45" r="35.5"></circle><circle cx="45" cy="45" r="35.5"></circle></g></g></g></svg></svg> <!----></g></g></mask></svg>